<svg width="36" height="36" viewBox="0 0 36 36" fill="none" xmlns="http://www.w3.org/2000/svg">
<circle cx="18" cy="12" r="6" stroke="#666666" stroke-width="2" stroke-linecap="round"/>
<path fill-rule="evenodd" clip-rule="evenodd" d="M23.6803 24C21.9138 23.3429 19.9709 23 17.9996 23C15.1996 23 12.4569 23.6917 10.1957 24.9931C7.93496 26.2941 6.245 28.1559 5.46677 30.3342C5.28096 30.8543 5.55195 31.4265 6.07204 31.6123C6.59213 31.7981 7.16437 31.5272 7.35018 31.0071C7.93935 29.358 9.26248 27.8377 11.1932 26.7265C13.1234 25.6157 15.5164 25 17.9996 25C18.2498 25 18.499 25.0062 18.7469 25.0186C19.2967 24.3941 20.1021 24 20.9996 24L23.6803 24ZM29.9996 31.5833C30.472 31.3722 30.7094 30.8296 30.5324 30.3342C30.4923 30.2219 30.4498 30.1105 30.4049 30H29.9996V31.5833Z" fill="#666666"/>
<path d="M27 21L27 33" stroke="#666666" stroke-width="2.5" stroke-linecap="round"/>
<path d="M33 27L21 27" stroke="#666666" stroke-width="2.5" stroke-linecap="round"/>
</svg>
