<svg width="65" height="65" viewBox="0 0 65 65" fill="none" xmlns="http://www.w3.org/2000/svg">
<g clip-path="url(#clip0_12271_99336)">
<path d="M32.5 65C14.5498 65 0 50.4502 0 32.5C0 14.5498 14.5498 0 32.5 0C50.4502 0 65 14.5498 65 32.5C65 50.4502 50.4502 65 32.5 65ZM31.9414 12.3094C31.1492 12.6181 30.9461 13.7455 31.5636 14.3162C32.1466 14.9114 33.2841 14.7022 33.5847 13.9242C34.1027 12.9675 32.9144 11.8077 31.9394 12.3073L31.9414 12.3094ZM21.4703 13.4184C20.6477 13.6337 20.5562 14.9094 21.3545 15.2141C21.9578 15.5391 22.813 15.0333 22.75 14.3467C22.8109 13.7109 22.0614 13.1788 21.4703 13.4184ZM42.9163 15.2323C43.5459 15.3908 44.0131 14.887 44.1594 14.3386C44.0578 13.6947 43.4241 13.0752 42.7355 13.4042C41.8458 13.6927 41.992 15.1227 42.9163 15.2323ZM23.853 17.8019C22.9267 18.2691 22.7987 19.6584 23.6397 20.2638C24.5091 21.0356 26.0487 20.3734 26.0995 19.2339C26.2519 18.1025 24.8402 17.1864 23.853 17.8019ZM38.9452 18.4559C38.3947 19.5447 39.5058 20.7919 40.6778 20.5766C41.5614 20.2881 42.1728 19.238 41.6752 18.3909C41.1734 17.3022 39.3859 17.3367 38.9452 18.4559ZM30.68 20.5136C30.6272 21.2977 31.198 21.9395 31.8744 22.2666C32.3172 22.293 32.7986 22.3763 33.2048 22.1528C34.0945 21.7669 34.5333 20.605 34.0397 19.76C33.7756 19.1506 33.1053 18.8906 32.4898 18.7687C31.5595 18.8358 30.6698 19.5508 30.68 20.5136ZM15.1084 21.9152C14.3203 22.2706 14.2106 23.4711 14.9053 23.9708C15.5594 24.503 16.7009 24.1637 16.8878 23.3289C17.2311 22.3641 16.0123 21.3687 15.1084 21.9152ZM48.5469 21.9111C47.7588 22.3864 47.8461 23.6539 48.683 24.0236C49.4427 24.4705 50.5375 23.8164 50.4847 22.9491C50.5761 21.9984 49.3127 21.3261 48.5469 21.9131V21.9111ZM35.0594 23.6397C33.4831 24.1109 32.5488 25.9919 33.1906 27.495C33.7553 29.1748 35.9877 29.9548 37.5172 29.0347C38.9898 28.2567 39.4956 26.1909 38.545 24.8361C37.8259 23.727 36.3228 23.1908 35.0594 23.6397ZM27.6392 23.788C26.1462 24.4441 25.4597 26.3798 26.2336 27.8058C26.9242 29.2784 28.9352 29.8838 30.3611 29.0855C31.785 28.3766 32.4005 26.4652 31.6042 25.092C30.9278 23.6823 29.0408 23.1359 27.6392 23.788ZM20.2109 26.2844C20.0058 27.3284 20.9523 28.3888 22.035 28.2953C23.0181 28.3014 23.7352 27.4097 23.7961 26.4977C23.7427 26.05 23.5387 25.6339 23.2176 25.3175C22.8965 25.0012 22.4773 24.8035 22.0289 24.7569C21.1697 24.8178 20.3186 25.3967 20.2109 26.2844ZM42.1525 24.9519C40.9602 25.5044 40.8728 27.3325 42.0205 27.9825C43.1255 28.7625 44.8317 27.8261 44.7566 26.4956C44.8053 25.2403 43.2636 24.3161 42.1525 24.9519ZM24.6228 29.638C22.8597 30.0564 21.8278 32.1892 22.6769 33.7797C23.4183 35.5144 25.9797 36.0263 27.3691 34.7547C28.4538 33.8873 28.7381 32.2441 28.0414 31.0619C27.4036 29.8878 25.9208 29.2866 24.6228 29.638ZM38.6933 29.6319C36.918 30.1092 35.9795 32.3233 36.9119 33.8894C37.6838 35.4047 39.8511 35.9125 41.2506 34.9456C42.5852 34.1108 43.0137 32.1791 42.1159 30.8852C41.4375 29.7537 39.9547 29.2764 38.6933 29.6319ZM16.2683 31.1066C15.1917 31.4072 14.8728 32.9428 15.7361 33.6314C16.4734 34.3667 17.9014 33.997 18.1797 33.0017C18.6327 31.9069 17.3895 30.6902 16.2683 31.1066ZM46.6741 32.695C46.8609 33.1216 47.0864 33.5684 47.5272 33.7878C48.4697 34.2977 49.8002 33.5603 49.7291 32.4736C49.79 31.6489 49.0425 31.0395 48.2747 30.9197C47.8278 30.9449 47.4089 31.1456 47.1091 31.478C46.8094 31.8105 46.653 32.2479 46.6741 32.695ZM10.7534 31.6469C10.1948 31.8967 9.95312 32.6422 10.3594 33.1277C10.8184 33.8244 12.0717 33.5034 12.1062 32.6686C12.2627 31.9312 11.4278 31.3564 10.7534 31.6469ZM53.3061 31.6286C52.5139 32.045 52.8247 33.4811 53.7834 33.3958C54.4659 33.4973 55.0509 32.6787 54.732 32.0816C54.5431 31.5352 53.7814 31.2975 53.3061 31.6286ZM28.2872 35.6362C26.9587 35.9206 25.935 37.1617 25.9391 38.4983C25.8923 39.8937 26.9953 41.2262 28.4009 41.4497C30.2189 41.8681 32.0978 40.2573 31.982 38.4394C31.9719 36.6397 30.0645 35.1833 28.2872 35.6362ZM35.3194 35.6342C34.2509 35.8942 33.345 36.7616 33.1094 37.828C32.6422 39.4266 33.8772 41.2364 35.553 41.4497C37.3323 41.8031 39.1544 40.2452 39.0589 38.4617C39.0873 36.6214 37.1191 35.1386 35.3194 35.6342ZM21.7587 36.7412C20.412 36.8753 19.7011 38.6567 20.6517 39.6297C21.4642 40.6453 23.3005 40.3081 23.6702 39.065C24.1759 37.9011 23.0059 36.532 21.7608 36.7412H21.7587ZM42.3841 36.7961C41.0414 37.2166 40.8159 39.2336 42.0489 39.9161C43.1356 40.6798 44.8216 39.778 44.7769 38.4719C44.8622 37.2836 43.4972 36.3391 42.3841 36.7961ZM48.1488 42.4836C48.4433 43.292 49.6722 43.485 50.2145 42.8086C50.6147 42.445 50.5152 41.8803 50.4562 41.407C50.1698 41.1145 49.855 40.7672 49.4061 40.7753C48.5042 40.627 47.7141 41.6853 48.1488 42.4836ZM15.1044 40.9967C14.302 41.3989 14.2736 42.6562 15.0495 43.097C15.7727 43.5845 16.8695 43.095 16.9691 42.2378C17.16 41.2689 15.9473 40.4442 15.1044 40.9967ZM31.7464 42.7903C30.418 43.2108 30.2189 45.2136 31.4153 45.8941C32.4939 46.6862 34.2327 45.7722 34.1494 44.4519C34.255 43.2575 32.8494 42.313 31.7464 42.7903ZM24.0398 44.5595C23.3777 44.8033 23.1075 45.5223 23.0953 46.1663C23.3228 46.7573 23.7819 47.3809 24.4867 47.3952C25.3398 47.5211 26.1808 46.798 26.1523 45.9489C26.2377 44.913 24.9783 44.0741 24.0398 44.5595ZM39.652 44.5758C38.7095 45.0491 38.6039 46.4791 39.4733 47.0742C40.3731 47.8339 41.925 47.0945 41.9006 45.9367C41.992 44.8317 40.6189 43.9867 39.652 44.5758ZM42.3678 51.1773C42.8086 51.9208 44.0944 51.6567 44.1777 50.7914C44.2955 50.1495 43.7023 49.7352 43.1417 49.6234C42.443 49.7697 41.9372 50.5375 42.3678 51.1773ZM20.8142 50.6228C20.8752 51.352 21.6836 51.9837 22.3783 51.5227C23.1522 51.1164 22.8902 49.8062 22.0066 49.7453C21.3992 49.6133 20.9848 50.117 20.8142 50.6228ZM31.2142 51.2058C30.9034 51.9634 31.6469 52.8795 32.4695 52.7841C32.9123 52.7942 33.2556 52.4834 33.5217 52.1747C33.5725 51.9655 33.6253 51.7542 33.6842 51.545C33.5745 51.1428 33.4486 50.6716 33.018 50.4888C32.368 50.0906 31.3848 50.4562 31.2142 51.2058Z" fill="#142C8E"/>
</g>
<defs>
<clipPath id="clip0_12271_99336">
<rect width="65" height="65" fill="white"/>
</clipPath>
</defs>
</svg>
