<svg width="65" height="65" viewBox="0 0 65 65" fill="none" xmlns="http://www.w3.org/2000/svg">
<g clip-path="url(#clip0_12271_99332)">
<path fill-rule="evenodd" clip-rule="evenodd" d="M32.5 65C14.5498 65 0 50.4502 0 32.5C0 14.5498 14.5498 0 32.5 0C50.4502 0 65 14.5498 65 32.5C65 50.4502 50.4502 65 32.5 65ZM23.5361 17.4728L18.2812 23.075L27.1375 32.4472L18.2812 42.0063L23.5361 47.5252L32.5 38.1712L41.2445 47.5231L46.7188 41.8498L37.7894 32.498L46.7188 23.075L41.2445 17.4748L32.5 26.8288L23.5361 17.4728ZM24.2572 16.7091L28.5756 21.3098L32.4634 17.0158L36.3512 21.3098L40.6697 16.7091L32.4634 8.125L24.2572 16.7091ZM24.2572 48.2909L32.4634 56.875L40.6697 48.2909L36.3512 43.6902L32.4634 47.9842L28.5756 43.6902L24.2572 48.2909Z" fill="#142C8E"/>
</g>
<defs>
<clipPath id="clip0_12271_99332">
<rect width="65" height="65" fill="white"/>
</clipPath>
</defs>
</svg>
