<svg width="65" height="65" viewBox="0 0 65 65" fill="none" xmlns="http://www.w3.org/2000/svg">
<g clip-path="url(#clip0_12271_99334)">
<path fill-rule="evenodd" clip-rule="evenodd" d="M32.5 65C14.5498 65 0 50.4502 0 32.5C0 14.5498 14.5498 0 32.5 0C50.4502 0 65 14.5498 65 32.5C65 50.4502 50.4502 65 32.5 65ZM16.8655 24.2877C14.9825 24.2877 13.7983 25.1936 13.3189 27.0034C13.2458 27.558 13.2722 28.1206 13.4022 28.6934C13.5322 29.2663 13.7536 29.7842 14.0664 30.2453C14.3813 30.7064 14.7875 31.068 15.2852 31.3259C15.7848 31.5839 16.3861 31.6956 17.0869 31.6591C18.0446 31.6821 18.9882 31.8946 19.8633 32.2844C20.7384 32.6742 21.5276 33.2335 22.1853 33.93C22.866 34.5909 23.404 35.3843 23.7663 36.2612C24.1286 37.138 24.3074 38.0798 24.2917 39.0284C24.2917 40.0644 24.6513 40.9419 25.3723 41.663C26.0934 42.382 26.9709 42.7436 28.0048 42.7436C29.0002 42.7436 29.8614 42.382 30.5805 41.663C31.3016 40.9419 31.6611 40.0644 31.6611 39.0305C31.6646 38.5633 31.576 38.1 31.4003 37.6672C31.2247 37.2343 30.9654 36.8403 30.6373 36.5077C30.3238 36.1622 29.9438 35.8834 29.5201 35.6879C29.0965 35.4925 28.6378 35.3844 28.1714 35.3702C26.2133 35.4087 24.44 34.7242 22.8495 33.3206C21.4094 31.9191 20.6517 30.162 20.5786 28.0556C20.5055 26.0244 21.2245 24.2511 22.7398 22.7338C24.2552 21.2205 26.065 20.4994 28.1714 20.5745C28.6378 20.5603 29.0965 20.4522 29.5201 20.2568C29.9438 20.0613 30.3238 19.7825 30.6373 19.437C30.969 19.0961 31.2301 18.6932 31.4058 18.2512C31.5815 17.8092 31.6682 17.337 31.6611 16.8614C31.6611 15.8641 31.3016 15.0048 30.5805 14.2838C30.2477 13.9373 29.8475 13.6627 29.4045 13.4769C28.9615 13.291 28.4852 13.1979 28.0048 13.2031C26.9689 13.2031 26.0934 13.5627 25.3723 14.2838C25.0257 14.6168 24.7509 15.0173 24.5651 15.4607C24.3792 15.904 24.2862 16.3807 24.2917 16.8614C24.2917 18.8195 23.5889 20.5562 22.1853 22.0716C20.7431 23.5117 19.045 24.2511 17.0869 24.2877H16.8655ZM16.9163 35.3722C15.8803 35.3722 15.0048 35.7337 14.2838 36.4528C13.9371 36.7858 13.6623 37.1864 13.4765 37.6297C13.2906 38.0731 13.1976 38.5498 13.2031 39.0305C13.2031 40.103 13.5809 40.9987 14.3406 41.7178C14.7016 42.0695 15.1318 42.3423 15.6039 42.5189C16.076 42.6955 16.5796 42.772 17.0828 42.7436C18.0407 42.7668 18.9844 42.9797 19.8595 43.3698C20.7346 43.76 21.5237 44.3197 22.1812 45.0166C23.5828 46.4202 24.2856 48.1386 24.2856 50.1698C24.2856 51.1672 24.637 52.0264 25.3398 52.7475C26.0406 53.4686 26.8917 53.8281 27.8891 53.8281H27.9988C28.9961 53.8281 29.8553 53.4686 30.5764 52.7475C31.2975 52.0264 31.657 51.1672 31.657 50.1698C31.657 48.1386 32.3578 46.4202 33.7634 45.0166C35.1284 43.5744 36.8469 42.8167 38.9167 42.7436H39.0833C40.9297 42.7436 42.1098 41.8194 42.6298 39.973C42.8878 38.8639 42.6664 37.8117 41.9636 36.8144C41.2628 35.7784 40.2452 35.2991 38.9167 35.3722C36.922 35.3356 35.2036 34.5962 33.7634 33.1561C32.4005 31.6855 31.6977 30.0056 31.6591 28.1186L31.6611 27.9459C31.6611 25.9492 32.3639 24.2491 33.7675 22.8475C34.4249 22.1502 35.2139 21.5902 36.089 21.1997C36.9641 20.8092 37.9079 20.596 38.8659 20.5725C40.9723 20.538 42.7639 21.257 44.2406 22.7358C45.7559 24.2877 46.4953 26.0792 46.4587 28.1105C46.4953 29.1098 46.8731 29.9488 47.5942 30.6333C47.9349 30.9653 48.3378 31.2268 48.7798 31.4028C49.2218 31.5789 49.6942 31.6659 50.1698 31.6591C51.1692 31.6591 52.0264 31.2975 52.7495 30.5784C53.4686 29.8573 53.8281 28.9798 53.8281 27.9459C53.8281 26.91 53.4422 26.0325 52.6642 25.3134C51.8883 24.5923 51.0027 24.2511 50.0033 24.2877C48.0106 24.2511 46.2922 23.5117 44.85 22.0716C43.4484 20.5562 42.7456 18.8195 42.7456 16.8614V16.4186C42.7456 16.38 42.7253 16.3434 42.6888 16.3069V16.1403C42.6888 16.1038 42.6705 16.0672 42.6339 16.0306V15.8641L42.5791 15.8072V15.6975L42.5506 15.6691C42.5323 15.6508 42.5242 15.6244 42.5242 15.5878V15.5309C42.4856 15.5309 42.4673 15.4944 42.4673 15.4192L42.4125 15.3644L42.3841 15.3359C42.3658 15.3177 42.3577 15.2913 42.3577 15.2547V15.1978C42.3211 15.1978 42.3008 15.1795 42.3008 15.143L42.2744 15.1145C42.2541 15.0962 42.2459 15.0698 42.2459 15.0333H42.1911V14.9764L42.1362 14.9216V14.8078L42.0794 14.753L42.0245 14.6981L41.9961 14.6697C41.9778 14.6514 41.9697 14.623 41.9697 14.5884L41.9148 14.5316C41.8763 14.5316 41.858 14.5112 41.858 14.4767L41.8316 14.4483C41.8112 14.428 41.8031 14.4016 41.8031 14.365H41.7483V14.3102C41.7097 14.3102 41.6914 14.2898 41.6914 14.2553L41.6366 14.1984C41.6 14.1984 41.5634 14.1802 41.5269 14.1436L41.47 14.0887H41.4152V14.0319C41.3786 14.0319 41.3603 14.0136 41.3603 13.977C41.2852 13.977 41.2486 13.9567 41.2486 13.9222H41.1938V13.8653L41.1369 13.8105C41.0638 13.8105 41.0272 13.7922 41.0272 13.7556H40.9723L40.9155 13.7008C40.8789 13.7008 40.8525 13.6906 40.8342 13.6723C40.8248 13.6628 40.8153 13.6534 40.8058 13.6439L40.7509 13.5891H40.6941V13.5342H40.5844L40.5275 13.4773C40.4909 13.4773 40.4544 13.4591 40.4178 13.4225H40.3061L40.2513 13.3677H40.1395L40.0847 13.3128H39.975C39.9364 13.3128 39.91 13.3027 39.8917 13.2844L39.8633 13.2559H39.7536C39.715 13.2559 39.6886 13.2478 39.6703 13.2295L39.6419 13.2011H38.478C38.478 13.2377 38.4597 13.2559 38.4231 13.2559H38.2566L38.2017 13.3128H38.0352L37.9803 13.3677H37.8686L37.8137 13.4225H37.702V13.4773H37.5923L37.5355 13.5342H37.4806V13.5891H37.3689L37.3141 13.6439H37.2592C37.2592 13.6825 37.2389 13.7008 37.2044 13.7008C37.1658 13.7008 37.1475 13.7191 37.1475 13.7556H37.0927L37.0378 13.8105L36.9809 13.8653C36.9444 13.8653 36.9261 13.8856 36.9261 13.9222H36.8164V13.977L36.7595 14.0319C36.723 14.0319 36.7047 14.0522 36.7047 14.0887H36.593L36.5381 14.1436C36.5381 14.1802 36.5198 14.1984 36.4833 14.1984V14.2553H36.4284V14.3102L36.3716 14.365C36.335 14.365 36.3167 14.3853 36.3167 14.4198L36.2619 14.4767L36.205 14.5316C35.6704 15.1462 35.3754 15.933 35.3742 16.7477C35.4108 18.8175 34.6734 20.6091 33.1581 22.1244C31.7362 23.5442 30.0747 24.2653 28.1673 24.2897C28.0705 24.2863 27.9737 24.2863 27.8769 24.2897L27.7834 24.2856C27.7022 24.2917 27.6209 24.2998 27.5397 24.312C26.7139 24.3988 25.9447 24.7726 25.3662 25.3683C25.0198 25.7011 24.7452 26.1013 24.5594 26.5443C24.3735 26.9872 24.2804 27.4636 24.2856 27.9439C24.2856 28.9412 24.6289 29.8005 25.3114 30.5216C25.6455 30.8888 26.0544 31.1802 26.5106 31.3761C26.9668 31.572 27.4597 31.6678 27.9561 31.657H28.0048C29.9427 31.6733 31.6408 32.3761 33.0972 33.7634C33.8114 34.4193 34.382 35.216 34.7732 36.1032C35.1644 36.9905 35.3676 37.9491 35.3702 38.9188C35.4067 40.9866 34.6856 42.7598 33.2089 44.2386C31.7667 45.7153 30.0503 46.4547 28.0556 46.4547H27.8891C25.8578 46.4547 24.1191 45.7153 22.6789 44.2386C21.2367 42.7233 20.5359 40.95 20.5745 38.9167C20.5584 38.4468 20.4497 37.9848 20.2545 37.5571C20.0592 37.1293 19.7815 36.7444 19.437 36.4244C19.109 36.0886 18.7168 35.8222 18.2838 35.6411C17.8507 35.46 17.3856 35.3699 16.9163 35.3722Z" fill="#142C8E"/>
</g>
<defs>
<clipPath id="clip0_12271_99334">
<rect width="65" height="65" fill="white"/>
</clipPath>
</defs>
</svg>
