<svg width="65" height="65" viewBox="0 0 65 65" fill="none" xmlns="http://www.w3.org/2000/svg">
<g clip-path="url(#clip0_12271_99330)">
<path d="M32.5 65C14.5498 65 0 50.4502 0 32.5C0 14.5498 14.5498 0 32.5 0C50.4502 0 65 14.5498 65 32.5C65 50.4502 50.4502 65 32.5 65ZM24.6106 29.2581L32.5 21.3688L40.3934 29.2622L44.9841 24.6716L32.5 12.1875L20.02 24.6675L24.6106 29.2581ZM12.1875 32.5L16.7781 37.0906L21.3688 32.5L16.7781 27.9094L12.1875 32.5ZM24.6106 35.7419L20.0139 40.3264L20.02 40.3325L32.5 52.8125L44.9841 40.3284L40.3934 35.7358L32.5 43.6312L24.6106 35.7419ZM43.6312 32.5L48.2219 37.0906L52.8125 32.5L48.2219 27.9094L43.6312 32.5ZM37.1556 32.4959L32.5 27.8403L29.057 31.2812L28.6609 31.6773L27.8464 32.4939L27.8383 32.5L27.8464 32.5061L32.498 37.1597L37.1577 32.502L37.1597 32.5L37.1556 32.4959Z" fill="#142C8E"/>
</g>
<defs>
<clipPath id="clip0_12271_99330">
<rect width="65" height="65" fill="white"/>
</clipPath>
</defs>
</svg>
