<svg width="67" height="65" viewBox="0 0 67 65" fill="none" xmlns="http://www.w3.org/2000/svg">
<g clip-path="url(#clip0_12271_99349)">
<path fill-rule="evenodd" clip-rule="evenodd" d="M33.8987 65C15.6248 65 0.8125 50.4502 0.8125 32.5C0.8125 14.5498 15.6248 0 33.8987 0C52.1726 0 66.9848 14.5498 66.9848 32.5C66.9848 50.4502 52.1726 65 33.8987 65ZM44.7261 21.7161C43.1194 17.7105 39.0973 17.3489 34.4115 18.2427L32.7427 12.5288L29.2025 13.5261L30.8258 19.0917C29.8952 19.3517 28.9502 19.6381 28.0093 19.9245L26.3757 14.3223L22.8355 15.3177L24.5022 21.0316C23.7392 21.2631 22.9926 21.4886 22.2565 21.6958L22.2523 21.6795L17.368 23.0527L18.4536 26.7678C18.4536 26.7678 21.053 25.9817 21.024 26.0427C22.4571 25.6364 23.1643 26.325 23.5055 26.9913L25.4079 33.5014C25.5051 33.475 25.6354 33.4405 25.7884 33.4202L25.4141 33.5258L28.0755 42.6461C28.1417 43.1072 28.0817 43.8892 27.0809 44.1736C27.1367 44.2 24.5063 44.8967 24.5063 44.8967L25.015 49.2497L29.6244 47.9497C30.4805 47.71 31.3283 47.4866 32.1596 47.2591L33.847 53.038L37.3831 52.0427L35.7163 46.3247C36.6642 46.0774 37.6093 45.8201 38.5514 45.5528L40.2119 51.2464L43.7521 50.2491L42.071 44.4803C47.9251 42.4673 51.6618 39.8206 50.5762 34.1819C49.7035 29.6441 47.0091 28.2669 43.3965 28.4212C45.15 26.8166 45.9069 24.6452 44.7261 21.7161ZM43.3799 35.4677C44.6413 39.7881 36.9695 41.4172 34.5707 42.0956L32.3374 34.4378C34.7362 33.7614 42.0648 30.9623 43.3799 35.4677ZM38.5783 25.1286C39.7239 29.0591 33.3114 30.3692 31.3138 30.9319L29.2873 23.987C31.2849 23.4244 37.381 21.0316 38.5783 25.1286Z" fill="#142C8E"/>
</g>
<defs>
<clipPath id="clip0_12271_99349">
<rect width="66.1723" height="65" fill="white" transform="translate(0.8125)"/>
</clipPath>
</defs>
</svg>
