<svg width="65" height="65" viewBox="0 0 65 65" fill="none" xmlns="http://www.w3.org/2000/svg">
<g clip-path="url(#clip0_12271_99338)">
<path fill-rule="evenodd" clip-rule="evenodd" d="M32.5 65C14.5498 65 0 50.4502 0 32.5C0 14.5498 14.5498 0 32.5 0C50.4502 0 65 14.5498 65 32.5C65 50.4502 50.4502 65 32.5 65ZM21.2916 34.32V48.75H34.5942C37.052 48.75 39.1787 48.3234 40.9764 47.4764C42.7741 46.6253 44.2406 45.4655 45.3802 43.9928C46.5177 42.5222 47.3647 40.7997 47.9192 38.8273C48.4738 36.855 48.75 34.7445 48.75 32.5C48.7639 30.3627 48.4837 28.2336 47.9172 26.1727C47.3647 24.2023 46.5177 22.4778 45.3781 21.0072C44.2406 19.5345 42.7741 18.3747 40.9764 17.5236C39.1787 16.6766 37.05 16.25 34.5922 16.25H21.2895V29.6766H18.2812V34.32H21.2916ZM26.91 29.6786V20.8934H32.437C34.6247 20.8934 36.4142 21.188 37.8077 21.7811C39.2011 22.3722 40.2939 23.1908 41.0881 24.2389C41.9004 25.3289 42.4534 26.5898 42.705 27.9256C42.9894 29.3373 43.1316 30.8608 43.1316 32.5C43.1414 34.0352 42.9985 35.5675 42.705 37.0744C42.4206 38.4861 41.8823 39.715 41.0881 40.7611C40.2939 41.8092 39.1991 42.6278 37.8077 43.2189C36.4142 43.812 34.6247 44.1066 32.437 44.1066H26.91V34.32H35.6728V29.6786H26.91Z" fill="#142C8E"/>
</g>
<defs>
<clipPath id="clip0_12271_99338">
<rect width="65" height="65" fill="white"/>
</clipPath>
</defs>
</svg>
