<svg width="65" height="65" viewBox="0 0 65 65" fill="none" xmlns="http://www.w3.org/2000/svg">
<g clip-path="url(#clip0_12271_99342)">
<path fill-rule="evenodd" clip-rule="evenodd" d="M32.5 65C14.5498 65 0 50.4502 0 32.5C0 14.5498 14.5498 0 32.5 0C50.4502 0 65 14.5498 65 32.5C65 50.4502 50.4502 65 32.5 65ZM48.7378 32.9448L33.5116 8.125L18.2812 32.9469L33.5116 41.7889L48.7378 32.9448ZM48.75 35.7825L33.5116 44.6205L18.2812 35.7845L33.5116 56.8648L48.75 35.7825Z" fill="#142C8E"/>
<path d="M33.5117 8.125V26.1422L48.74 32.9469L33.5117 8.125ZM33.5117 44.6225V56.8648L48.7502 35.7825L33.5117 44.6225Z" fill="#142C8E" fill-opacity="0.298"/>
<path d="M33.5117 41.7891L48.74 32.9471L33.5117 26.1465V41.7891Z" fill="#142C8E" fill-opacity="0.801"/>
<path d="M18.2812 32.9471L33.5116 41.7891V26.1465L18.2812 32.9471Z" fill="#142C8E" fill-opacity="0.298"/>
</g>
<defs>
<clipPath id="clip0_12271_99342">
<rect width="65" height="65" fill="white"/>
</clipPath>
</defs>
</svg>
