<svg width="65" height="65" viewBox="0 0 65 65" fill="none" xmlns="http://www.w3.org/2000/svg">
<g clip-path="url(#clip0_12271_99328)">
<path d="M32.5 0C50.4502 0 65 14.5498 65 32.5C65 50.4502 50.4502 65 32.5 65C14.5498 65 0 50.4502 0 32.5C0 14.5498 14.5498 0 32.5 0ZM32.63 8.125C19.1039 8.14125 8.14125 19.043 8.125 32.5C8.125 41.7909 13.8633 49.2659 21.4764 49.8936C26.1077 50.2734 30.5866 48.6322 33.5359 47.1839C35.2962 46.4643 36.935 45.4777 38.3947 44.2589L38.7116 43.9969L39.0569 43.6922L39.3819 43.3936C42.1464 40.7895 45.4391 36.1014 45.4391 28.5655V27.7327L32.7356 19.0653L20.0302 27.7347V28.5614L20.0403 29.3069C20.2495 36.4102 23.4142 40.8728 26.0853 43.3916C26.4083 43.6963 26.7475 43.9948 27.1009 44.2812C28.2588 43.8648 29.4166 43.4362 30.5439 42.9386C27.6595 41.0739 23.4772 37.0439 23.2009 29.378L32.7356 22.8698L42.2683 29.378L42.2317 30.0564C41.8377 35.8536 39.1503 39.457 36.788 41.5269L36.4833 41.7605L36.467 41.7747L36.3594 41.8519C35.36 42.5791 28.5309 47.3281 21.7364 46.7655C17.1661 46.3877 13.455 42.6908 11.9783 37.5395C12.371 37.263 12.679 36.8825 12.8678 36.4409C13.0566 35.9992 13.1188 35.5137 13.0473 35.0387C12.9758 34.5637 12.7736 34.118 12.4631 33.7514C12.1527 33.3848 11.7464 33.1119 11.2897 32.9631V32.5L11.3059 31.6875C11.4075 28.9819 12.0352 26.3189 13.1544 23.8448C14.5232 24.4048 16.047 24.4573 17.4511 23.9928C18.8552 23.5284 20.0472 22.5776 20.8122 21.3119C21.3616 20.401 21.6647 19.363 21.6917 18.2996C21.7188 17.2363 21.4689 16.1842 20.9666 15.2466C20.8957 15.1192 20.8212 14.9939 20.7431 14.8708C23.1008 13.2963 25.7478 12.2058 28.5304 11.6625C31.3129 11.1193 34.1757 11.1341 36.9525 11.7061C39.726 12.275 42.3584 13.3907 44.6961 14.988C47.0338 16.5853 49.0299 18.6322 50.568 21.0092C49.1461 22.2077 48.6241 24.1637 49.268 25.9045C49.5834 26.7565 50.1525 27.4911 50.8986 28.0095C51.6446 28.5278 52.5317 28.8048 53.4402 28.8031H53.6453L53.7672 29.5364C53.9094 30.5175 53.9845 31.5067 53.9906 32.502C53.9906 43.5114 45.1811 52.2133 32.5853 53.7428C22.5123 54.9738 16.0509 50.8138 16.0509 50.8138C19.823 54.9494 25.092 56.875 32.6361 56.875C46.0647 56.7308 56.875 45.8595 56.875 32.5C56.875 19.1384 46.0627 8.26719 32.63 8.125ZM48.9003 36.5503C47.6389 36.5503 46.6172 37.5659 46.6172 38.8213C46.618 39.12 46.6776 39.4157 46.7927 39.6914C46.9078 39.9671 47.076 40.2174 47.2878 40.4281C47.4996 40.6388 47.7509 40.8057 48.0272 40.9193C48.3035 41.0329 48.5995 41.091 48.8983 41.0902C50.1577 41.0902 51.1794 40.0745 51.1794 38.8213C51.1788 38.5223 51.1194 38.2264 51.0045 37.9505C50.8895 37.6745 50.7213 37.424 50.5095 37.2131C50.2976 37.0021 50.0463 36.8351 49.7698 36.7213C49.4934 36.6076 49.1992 36.5495 48.9003 36.5503ZM34.0925 36.8672H31.1675L31.4823 38.4048L32.0613 37.635L32.63 40.5214L33.1987 37.637L33.7777 38.4048L34.0925 36.8672ZM48.3844 37.5903C48.6286 37.4889 48.8974 37.4619 49.1569 37.5129C49.4164 37.5639 49.6551 37.6904 49.8428 37.8767C50.0296 38.062 50.157 38.2987 50.2087 38.5566C50.2604 38.8145 50.2342 39.082 50.1333 39.325C50.0153 39.6102 49.8022 39.8458 49.5303 39.9917C49.2583 40.1376 48.9442 40.185 48.6413 40.1256C48.3384 40.0663 48.0654 39.904 47.8686 39.6662C47.6718 39.4284 47.5634 39.1299 47.5617 38.8213C47.5617 38.283 47.8867 37.7975 48.3844 37.5903ZM11.3405 34.0336C11.5438 34.1593 11.7173 34.3279 11.8489 34.5275C11.9805 34.7271 12.067 34.953 12.1024 35.1895C12.1377 35.426 12.1212 35.6673 12.0538 35.8967C11.9864 36.1261 11.8698 36.3381 11.7122 36.5178C11.5326 35.699 11.4084 34.8691 11.3405 34.0336ZM32.6422 27.107C32.6422 27.107 31.0984 29.2459 31.0984 30.0909V34.4216L30.7288 34.5577C29.8817 34.907 29.1444 35.4839 28.6061 36.2273H36.6539L36.4102 35.9206C35.816 35.2247 35.0415 34.706 34.1717 34.4216V30.0909L34.1514 29.9061C33.9747 28.9717 32.6422 27.107 32.6422 27.107ZM51.0737 21.8197C52.1747 23.6986 52.9811 25.7359 53.4584 27.8586H53.4381L53.1334 27.8464C52.4846 27.7913 51.864 27.5559 51.3417 27.1669C50.8195 26.7778 50.4164 26.2505 50.178 25.6445C49.9224 24.9914 49.871 24.2762 50.0306 23.5933C50.1902 22.9103 50.5552 22.2919 51.0737 21.8197ZM19.9672 15.4172C20.0159 15.5045 20.0809 15.5959 20.1297 15.6873L20.2983 16.0327C20.7061 16.9517 20.8387 17.9692 20.6801 18.9621C20.5214 19.9549 20.0784 20.8805 19.4045 21.6267C18.6841 22.4243 17.7369 22.9823 16.6901 23.2259C15.6433 23.4696 14.547 23.3871 13.5484 22.9897C15.0652 19.9975 17.2639 17.4036 19.9672 15.4172Z" fill="#142C8E"/>
</g>
<defs>
<clipPath id="clip0_12271_99328">
<rect width="65" height="65" fill="white"/>
</clipPath>
</defs>
</svg>
