<svg width="65" height="65" viewBox="0 0 65 65" fill="none" xmlns="http://www.w3.org/2000/svg">
<g clip-path="url(#clip0_12271_99340)">
<path d="M32.5 0C50.4502 0 65 14.5498 65 32.5C65 50.4502 50.4502 65 32.5 65C14.5498 65 0 50.4502 0 32.5C0 14.5498 14.5498 0 32.5 0ZM50.1841 39.6439H21.0031C20.6876 39.6436 20.3847 39.7676 20.1602 39.9892L14.3955 45.7072C14.3118 45.7899 14.2547 45.8956 14.2314 46.011C14.2082 46.1263 14.2199 46.2459 14.2651 46.3546C14.3102 46.4632 14.3868 46.5559 14.4849 46.6208C14.583 46.6856 14.6983 46.7198 14.8159 46.7188H43.9969C44.3124 46.7191 44.6153 46.595 44.8398 46.3734L50.6045 40.6534C50.6875 40.5706 50.744 40.465 50.7668 40.3501C50.7896 40.2351 50.7778 40.1159 50.7327 40.0077C50.6876 39.8995 50.6114 39.8072 50.5137 39.7424C50.416 39.6776 50.3013 39.6433 50.1841 39.6439ZM43.9969 28.8945H14.8159L14.6778 28.9088C14.5748 28.9324 14.48 28.9833 14.4033 29.056C14.3266 29.1288 14.2708 29.2208 14.2418 29.3225C14.2128 29.4241 14.2115 29.5317 14.2382 29.634C14.2648 29.7363 14.3185 29.8295 14.3934 29.9041L20.1622 35.6241L20.3044 35.7459C20.5075 35.8881 20.7513 35.9694 21.0031 35.9694H50.1841L50.3222 35.9552C50.4252 35.9315 50.52 35.8806 50.5967 35.8079C50.6734 35.7351 50.7292 35.6431 50.7582 35.5415C50.7872 35.4398 50.7885 35.3322 50.7618 35.2299C50.7352 35.1276 50.6815 35.0344 50.6066 34.9598L44.8378 29.2398L44.6956 29.118C44.4918 28.9723 44.2474 28.8941 43.9969 28.8945ZM50.1841 18.2812H21.0031C20.6876 18.2809 20.3847 18.405 20.1602 18.6266L14.3955 24.3466C14.3125 24.4294 14.256 24.5349 14.2332 24.6499C14.2104 24.7649 14.2222 24.8841 14.2673 24.9923C14.3124 25.1005 14.3886 25.1928 14.4863 25.2576C14.584 25.3224 14.6987 25.3567 14.8159 25.3561H43.9969C44.3124 25.3564 44.6153 25.2324 44.8398 25.0108L50.6045 19.2928C50.6882 19.2101 50.7453 19.1044 50.7686 18.989C50.7918 18.8737 50.7801 18.7541 50.7349 18.6454C50.6898 18.5368 50.6132 18.4441 50.5151 18.3792C50.417 18.3144 50.3017 18.2802 50.1841 18.2812Z" fill="#142C8E"/>
</g>
<defs>
<clipPath id="clip0_12271_99340">
<rect width="65" height="65" fill="white"/>
</clipPath>
</defs>
</svg>
